<?xml version="1.0" encoding="utf-8"?>
<!-- Generator: Adobe Illustrator 25.0.0, SVG Export Plug-In . SVG Version: 6.00 Build 0)  -->
<svg version="1.1" id="Layer_1" xmlns="http://www.w3.org/2000/svg" xmlns:xlink="http://www.w3.org/1999/xlink" x="0px" y="0px"
	 viewBox="0 0 170.9 57.3" style="enable-background:new 0 0 170.9 57.3;" xml:space="preserve">
<style type="text/css">
	.st0{fill:#F1F2F2;}
	.st1{fill:#58595B;}
</style>
<path class="st0" d="M6.2,2h157.2c2.9,0,5.3,2.4,5.3,5.3v42.6c0,2.9-2.4,5.3-5.3,5.3H6.2c-2.9,0-5.3-2.4-5.3-5.3V7.3
	C0.9,4.4,3.3,2,6.2,2z"/>
<g>
	<g>
		<g>
			<path class="st1" d="M23.3,14.9h3.2c0.2,0,0.4-0.2,0.4-0.4c0-0.2-0.2-0.4-0.4-0.4h-3.2c-0.2,0-0.4,0.2-0.4,0.4
				C22.9,14.8,23.1,14.9,23.3,14.9z M24.9,41.4c-0.9,0-1.7,0.7-1.7,1.6c0,0.9,0.7,1.6,1.7,1.6c0.9,0,1.7-0.7,1.7-1.6
				C26.6,42.1,25.8,41.4,24.9,41.4z M16.7,40h16.3V17.3H16.7V40z M69,32.5c-0.8,0-1.5,0.2-2.1,0.7c-0.6,0.5-1,1.1-1.2,1.9
				c-0.1,0.4-0.1,0.7-0.1,0.9v2.2c0,1,0.3,1.8,0.9,2.5c0.6,0.7,1.4,1,2.5,1c1.2,0,2.1-0.4,2.8-1.3c0.7-0.9,1-2,1-3.4
				c0-1.3-0.3-2.4-0.9-3.2C71.1,33,70.2,32.5,69,32.5z M126.2,32.4c-1.3,0-2.2,0.5-2.9,1.6c-0.6,0.9-0.8,1.9-0.8,3.2
				c0,1.2,0.3,2.3,0.8,3.1c0.7,1.1,1.6,1.6,2.8,1.6c1.2,0,2.1-0.5,2.8-1.6c0.6-0.9,0.9-1.9,0.9-3.2c0-1.2-0.3-2.3-0.8-3.1
				C128.4,32.9,127.5,32.4,126.2,32.4z M84.5,32.5c-0.8,0-1.5,0.2-2.1,0.7c-0.6,0.5-1,1.1-1.2,1.9c-0.1,0.4-0.1,0.7-0.1,0.9v2.2
				c0,1,0.3,1.8,0.9,2.5c0.6,0.7,1.4,1,2.4,1c1.2,0,2.1-0.4,2.8-1.3c0.7-0.9,1-2,1-3.4c0-1.3-0.3-2.4-0.9-3.2
				C86.6,33,85.7,32.5,84.5,32.5z M52.1,27.8L52.1,27.8c-0.3,0.8-0.6,1.9-1,3.5l-1.6,4.8h5.3l-1.6-4.8C53,30.8,52.6,29.6,52.1,27.8z
				 M150,32.2c-1,0-1.9,0.4-2.5,1.2c-0.5,0.6-0.8,1.4-0.9,2.3h6.5c0-0.9-0.2-1.6-0.6-2.3C152,32.6,151.1,32.2,150,32.2z M66,19.1
				c0-0.1,0-0.3,0-0.4v-0.9c-1.3,0-2.5,0.2-2.5,1.3c0,0.7,0.5,1,1,1C65.3,20,65.8,19.6,66,19.1z M48.9,14.8
				c-0.2-0.6-0.4-1.2-0.5-1.8h0c-0.1,0.5-0.3,1.2-0.5,1.8l-0.8,2.3h2.6L48.9,14.8z M152.9,14.1c2.4,0,3.1,1.8,3.1,3.3
				c0,0.3,0,0.6-0.1,0.7h-4.9c0,1.2,1.1,1.8,2.2,1.8c0.9,0,1.4-0.1,2-0.3l0.3,1.2c-0.6,0.3-1.5,0.4-2.5,0.4c-2.4,0-3.7-1.4-3.7-3.5
				C149.4,15.9,150.6,14.1,152.9,14.1z M123.8,14.3l0.1,1h0c0.3-0.5,1.1-1.2,2.3-1.2c1.3,0,2.6,0.8,2.6,2.9v4.1H127v-3.9
				c0-1-0.4-1.7-1.4-1.7c-0.7,0-1.2,0.5-1.4,1c-0.1,0.1-0.1,0.4-0.1,0.5v4h-1.8v-4.8c0-0.8,0-1.4-0.1-2H123.8z M104.5,14.1
				c2.4,0,3.1,1.8,3.1,3.3c0,0.3,0,0.6-0.1,0.7h-4.9c0,1.2,1.1,1.8,2.2,1.8c0.9,0,1.4-0.1,2-0.3l0.3,1.2c-0.6,0.3-1.5,0.4-2.5,0.4
				c-2.4,0-3.7-1.4-3.7-3.5C101,15.9,102.2,14.1,104.5,14.1z M97,11.1h1.8v10H97V11.1z M82.4,15.3c-0.7,0-1.5,0.2-2,0.5l-0.4-1.1
				c0.5-0.3,1.5-0.6,2.6-0.6c2.3,0,3,1.4,3,2.9v2.5c0,0.6,0,1.2,0.1,1.6h-1.7l-0.1-0.8h0c-0.4,0.5-1.2,0.9-2.1,0.9
				c-1.5,0-2.3-1-2.3-2c0-1.7,1.6-2.6,4.3-2.6v-0.1C83.9,16.1,83.7,15.3,82.4,15.3z M71.6,11.4c0.6,0,1,0.4,1,0.9
				c0,0.5-0.4,0.9-1,0.9c-0.6,0-1-0.4-1-0.9C70.5,11.8,71,11.4,71.6,11.4z M72.5,14.3v6.9h-1.8v-6.9H72.5z M47.2,11.6h2.3l3.3,9.5
				h-2L50,18.4h-3.2l-0.9,2.7H44L47.2,11.6z M35,43.1c0,1.7-1.4,3-3.2,3H18c-1.8,0-3.2-1.4-3.2-3V14.2c0-1.7,1.4-3,3.2-3h13.8
				c1.8,0,3.2,1.4,3.2,3V43.1z M57.2,43.8l-1.8-5.4H49l-1.7,5.4H44l6.3-18.4h3.9l6.3,18.4H57.2z M57.9,21.1h-1.8l-2.7-6.9h2l1.2,3.5
				c0.2,0.6,0.4,1.2,0.5,1.7h0c0.1-0.6,0.3-1.1,0.5-1.7l1.2-3.5h1.9L57.9,21.1z M61.7,19.2c0-1.7,1.6-2.6,4.3-2.6v-0.1
				c0-0.4-0.2-1.2-1.5-1.2c-0.7,0-1.5,0.2-2,0.5l-0.4-1.1c0.5-0.3,1.5-0.6,2.6-0.6c2.3,0,3,1.4,3,2.9v2.5c0,0.6,0,1.2,0.1,1.6h-1.7
				l-0.1-0.8h0c-0.4,0.5-1.2,0.9-2.1,0.9C62.5,21.3,61.7,20.3,61.7,19.2z M73.9,42.3c-1.2,1.2-2.6,1.7-4.3,1.7c-1.9,0-3.2-0.6-4-1.9
				v7h-3.1V34.8c0-1.4,0-2.9-0.1-4.4h2.8l0.2,2.1h0.1c1.1-1.6,2.6-2.4,4.8-2.4c1.7,0,3,0.6,4.2,1.9c1.1,1.2,1.7,2.9,1.7,4.9
				C75.9,39.2,75.2,41,73.9,42.3z M77.2,21.1h-1.8v-10h1.8V21.1z M89.4,42.3c-1.2,1.2-2.6,1.7-4.3,1.7c-1.9,0-3.2-0.6-4-1.9v7h-3.1
				V34.8c0-1.4,0-2.9-0.1-4.4h2.8l0.2,2.1h0.1c1.1-1.6,2.6-2.4,4.8-2.4c1.7,0,3.1,0.6,4.2,1.9c1.1,1.2,1.7,2.9,1.7,4.9
				C91.4,39.2,90.7,41,89.4,42.3z M91.6,21.3c-0.9,0-1.8-0.3-2.3-1.2h0l-0.1,1h-1.6c0-0.5,0.1-1.2,0.1-1.9v-8.1h1.8v4.1h0
				c0.4-0.7,1.2-1.1,2.3-1.1c1.8,0,3,1.4,3,3.5C94.9,20,93.2,21.3,91.6,21.3z M107.4,42.4c-1.3,1.1-3.1,1.6-5.3,1.6
				c-2.1,0-3.8-0.4-5.1-1.1l0.7-2.5c1.4,0.8,2.9,1.1,4.5,1.1c1.2,0,2.1-0.3,2.8-0.8c0.7-0.5,1-1.2,1-2c0-0.7-0.3-1.4-0.8-1.9
				c-0.5-0.5-1.4-1-2.7-1.4c-3.4-1.2-5.1-3-5.1-5.3c0-1.5,0.6-2.8,1.8-3.7c1.2-1,2.8-1.4,4.8-1.4c1.8,0,3.3,0.3,4.4,0.9l-0.8,2.4
				c-1.1-0.6-2.4-0.8-3.8-0.8c-1.1,0-2,0.3-2.6,0.8c-0.5,0.5-0.8,1-0.8,1.7c0,0.7,0.3,1.3,0.9,1.8c0.5,0.4,1.5,0.9,2.8,1.4
				c1.7,0.6,2.9,1.4,3.7,2.2c0.8,0.9,1.2,1.9,1.2,3.2C109.1,40.2,108.5,41.4,107.4,42.4z M118.4,32.7H115v6.5c0,1.6,0.6,2.5,1.8,2.5
				c0.6,0,1,0,1.4-0.1l0.1,2.2c-0.6,0.2-1.4,0.3-2.4,0.3c-1.2,0-2.2-0.4-2.9-1.1c-0.7-0.7-1.1-1.9-1.1-3.6v-6.7h-2.1v-2.2h2.1V28
				l3.1-0.9v3.3h3.5V32.7z M116.7,21.3c-2,0-3.6-1.3-3.6-3.5c0-2.3,1.6-3.6,3.8-3.6c2.2,0,3.6,1.4,3.6,3.5
				C120.4,20.1,118.5,21.3,116.7,21.3z M131.3,42c-1.3,1.3-3,2-5.2,2c-2.1,0-3.7-0.6-5-1.9c-1.2-1.3-1.8-2.9-1.8-4.9
				c0-2.1,0.6-3.8,1.9-5.1c1.3-1.3,3-2,5.1-2c2.1,0,3.7,0.6,5,1.9c1.2,1.3,1.8,2.9,1.8,4.9C133.2,39.1,132.5,40.7,131.3,42z
				 M134.5,14.3h1V13l1.8-0.5v1.8h1.7v1.3h-1.7v3c0,0.8,0.2,1.3,0.9,1.3c0.3,0,0.5,0,0.7-0.1l0,1.3c-0.3,0.1-0.8,0.2-1.3,0.2
				c-0.7,0-1.2-0.2-1.6-0.6c-0.4-0.4-0.6-1-0.6-1.9v-3.2h-1V14.3z M142.6,33.1c-0.3-0.1-0.6-0.1-1-0.1c-1.1,0-2,0.4-2.6,1.2
				c-0.5,0.7-0.8,1.6-0.8,2.6v7h-3.1v-9.1c0-1.5,0-2.9-0.1-4.2h2.7l0.1,2.5h0.1c0.3-0.9,0.8-1.6,1.6-2.1c0.7-0.5,1.5-0.7,2.3-0.7
				c0.3,0,0.6,0,0.8,0V33.1z M143.1,17v4.1h-1.8v-10h1.8v4.1h0c0.2-0.3,0.5-0.6,0.9-0.8c0.4-0.2,0.8-0.3,1.3-0.3
				c1.2,0,2.5,0.8,2.5,3v4H146v-3.9c0-1-0.4-1.7-1.4-1.7c-0.7,0-1.2,0.5-1.4,1C143.1,16.6,143.1,16.8,143.1,17z M156,37.8h-9.4
				c0,1.3,0.5,2.3,1.4,3c0.8,0.6,1.8,0.9,3.1,0.9c1.4,0,2.7-0.2,3.8-0.6l0.5,2.1c-1.3,0.6-2.9,0.8-4.7,0.8c-2.2,0-3.9-0.6-5.1-1.8
				c-1.2-1.2-1.9-2.8-1.9-4.9c0-2,0.6-3.7,1.7-5c1.2-1.4,2.9-2.1,4.9-2.1c2,0,3.6,0.7,4.6,2.1c0.8,1.1,1.2,2.5,1.2,4.2
				C156.1,37,156.1,37.5,156,37.8z M91.2,15.5c-0.7,0-1.4,0.5-1.6,1.3c0,0.1-0.1,0.3-0.1,0.5v1.1c0,0.1,0,0.3,0,0.4
				c0.2,0.7,0.8,1.2,1.6,1.2c1.1,0,1.9-0.9,1.9-2.3C93,16.4,92.4,15.5,91.2,15.5z M104.4,15.3c-1.1,0-1.6,1-1.7,1.7h3.2
				C105.9,16.3,105.6,15.3,104.4,15.3z M116.7,15.4c-1.3,0-1.8,1.2-1.8,2.3c0,1.3,0.7,2.3,1.8,2.3c1,0,1.8-1,1.8-2.3
				C118.5,16.6,118,15.4,116.7,15.4z M81.4,19c0,0.7,0.5,1,1,1c0.7,0,1.3-0.5,1.4-0.9c0-0.1,0-0.3,0-0.4v-0.9
				C82.7,17.8,81.4,18,81.4,19z M152.8,15.3c-1.1,0-1.6,1-1.7,1.7h3.2C154.3,16.3,154,15.3,152.8,15.3z"/>
		</g>
	</g>
	<g>
		<path class="st1" d="M162.7,57.3H8.2c-4.5,0-8.2-3.5-8.2-7.7V7.7C0,3.4,3.7,0,8.2,0h154.5c4.5,0,8.2,3.5,8.2,7.7v41.9
			C170.9,53.8,167.2,57.3,162.7,57.3z M8.2,2C4.8,2,2.1,4.5,2.1,7.7v41.9c0,3.2,2.7,5.7,6.1,5.7h154.5c3.3,0,6.1-2.6,6.1-5.7V7.7
			c0-3.2-2.7-5.7-6.1-5.7H8.2z"/>
	</g>
</g>
</svg>
