<?xml version="1.0" encoding="utf-8"?>
<!-- Generator: Adobe Illustrator 25.0.0, SVG Export Plug-In . SVG Version: 6.00 Build 0)  -->
<svg version="1.1" id="Layer_1" xmlns="http://www.w3.org/2000/svg" xmlns:xlink="http://www.w3.org/1999/xlink" x="0px" y="0px"
	 viewBox="0 0 375.5 67.1" style="enable-background:new 0 0 375.5 67.1;" xml:space="preserve">
<style type="text/css">
	.st0{fill:#FFFFFF;}
</style>
<g id="XMLID_1_">
	<g>
		<path class="st0" d="M55.3,23.6c0,2.5,0,4.2,0,4.8c0,0.7-0.8,0.8-1.2,0.8s-1.4-0.4-1.4-1.2c0-0.4,0-3.7,0-4.3
			c0-1.9-1.2-2.6-1.4-2.6c-0.3,0-0.7,0.4-0.7,1.1c0,0.8,0,26.4,0,27.6S49.7,52,48.8,52c-1,0-1.5,0-1.5,0s0,2.5,0,2.8
			c0,0.2-0.3,0.8-0.9,0.8c-0.5,0-2,0-2.3,0s-0.9-0.2-0.9-0.8s0-2.7,0-2.7H24c0,0,0,2.1,0,2.5s-0.2,1-0.9,1c-0.7,0-2,0-2.4,0
			s-0.9-0.2-0.9-1.1c0-0.7,0-2.4,0-2.4s-1.2,0-1.9,0c-0.7,0-1.7-0.7-1.7-2c0-0.8,0-27.5,0-28.2s-0.2-0.8-0.4-0.8
			c-0.4,0-1.5,1-1.5,2.9c0,0.7,0,3.4,0,4.2s-0.6,1.2-1.3,1.2s-1.3-0.5-1.3-1.3s0-2.7,0-4c0-3.2,2.3-4.6,3.3-5.4s1.2-1.6,1.2-1.6
			s0-1,0-1.7c0-1.8,1.9-3.5,3.9-3.5s22.3,0,26.1,0c3.7,0,4.2,3.8,4.1,4.5c0,0.4,0.4,1.3,1.3,2c0.8,0.8,2,1.4,2.7,2.6
			C55,21.8,55.3,22.9,55.3,23.6z M49.5,44.5c0-0.7,0-1.7,0-2.5c0-0.9-1.9-0.8-3.4-0.3s-4.1,2.2-4.3,3s-0.1,1.2,0.2,1.5
			c0.2,0.3,2,0.3,4,0.2C47.9,46.1,49.5,45.2,49.5,44.5z M49.4,34.9c0-3.9,0-11,0-14s-4.1-3.2-17-3.2s-14.9,0.9-14.9,2.2
			c0,1.3,0,11.6,0,15.1c0,2,2.6,2.9,6.2,3.5c2.8,0.5,6.3,0.9,9.6,0.9c3.6,0,7.3-0.4,10.2-1C46.9,37.9,49.4,37,49.4,34.9z M41.3,49.1
			v-0.2c0-0.7-0.6-1.3-1.3-1.3H27c-0.7,0-1.3,0.6-1.3,1.3v0.2c0,0.7,0.6,1.3,1.3,1.3h13C40.7,50.4,41.3,49.8,41.3,49.1z M41.2,14.8
			v-0.2c0-0.7-0.6-1.3-1.3-1.3H27c-0.7,0-1.3,0.6-1.3,1.3v0.2c0,0.7,0.6,1.3,1.3,1.3h13C40.7,16.1,41.2,15.5,41.2,14.8z M25,46
			c0.2-0.3,0.4-0.8,0.2-1.5c-0.2-0.8-2.7-2.5-4.3-3c-1.5-0.5-3.4-0.6-3.4,0.3s0,1.8,0,2.5s1.6,1.6,3.5,1.8C23,46.3,24.8,46.3,25,46z
			"/>
	</g>
</g>
<g>
	<g>
		<path class="st0" d="M101.7,49.6h-3.8V36.2H83.2v13.4h-3.8v-29h3.8v12.5h14.6V20.6h3.8L101.7,49.6L101.7,49.6z"/>
	</g>
	<g>
		<path class="st0" d="M121.2,49.6c-0.2-0.4-0.4-1.2-0.5-2.3c-1.7,1.8-3.8,2.7-6.1,2.7c-2.1,0-3.9-0.6-5.2-1.8c-1.4-1.2-2-2.7-2-4.6
			c0-2.2,0.9-4,2.6-5.2s4.1-1.9,7.2-1.9h3.6v-1.7c0-1.3-0.4-2.3-1.2-3.1c-0.8-0.8-1.9-1.1-3.4-1.1c-1.3,0-2.4,0.3-3.3,1
			c-0.9,0.7-1.3,1.5-1.3,2.4h-3.7c0-1.1,0.4-2.1,1.1-3.1c0.8-1,1.8-1.8,3.1-2.4c1.3-0.6,2.7-0.9,4.3-0.9c2.5,0,4.4,0.6,5.8,1.9
			c1.4,1.2,2.1,2.9,2.2,5.1v9.9c0,2,0.3,3.5,0.8,4.7v0.3L121.2,49.6L121.2,49.6z M115.1,46.8c1.2,0,2.2-0.3,3.3-0.9
			c1-0.6,1.8-1.4,2.2-2.3v-4.4h-2.9c-4.5,0-6.8,1.3-6.8,4c0,1.2,0.4,2.1,1.2,2.7C112.9,46.4,113.8,46.8,115.1,46.8z"/>
	</g>
	<g>
		<path class="st0" d="M133.5,28l0.1,2.7c1.6-2.1,3.8-3.1,6.4-3.1c4.5,0,6.8,2.6,6.9,7.7v14.2h-3.7V35.3c0-1.6-0.4-2.7-1.1-3.4
			c-0.7-0.7-1.8-1.1-3.3-1.1c-1.2,0-2.2,0.3-3.1,1c-0.9,0.6-1.6,1.5-2.1,2.5v15.3H130V28H133.5z"/>
	</g>
	<g>
		<path class="st0" d="M151.6,38.6c0-3.3,0.8-6,2.3-8c1.6-2,3.6-3,6.1-3s4.5,0.9,6,2.6V19h3.7v30.6h-3.4l-0.2-2.3
			c-1.5,1.8-3.5,2.7-6.1,2.7c-2.5,0-4.5-1-6.1-3.1c-1.6-2-2.4-4.7-2.4-8L151.6,38.6L151.6,38.6z M155.3,39c0,2.4,0.5,4.4,1.5,5.7
			c1,1.4,2.4,2.1,4.2,2.1c2.3,0,4-1,5.1-3.1v-9.9c-1.1-2-2.8-3-5.1-3c-1.8,0-3.2,0.7-4.2,2.1C155.8,34.2,155.3,36.3,155.3,39z"/>
	</g>
	<g>
		<path class="st0" d="M182.5,44.2l5-16.1h3.9l-8.7,24.8c-1.3,3.6-3.5,5.4-6.4,5.4l-0.7-0.1l-1.4-0.3v-3l1,0.1
			c1.2,0,2.2-0.3,2.9-0.8s1.3-1.4,1.7-2.8l0.8-2.2L173.1,28h4L182.5,44.2z"/>
	</g>
	<g>
		<path class="st0" d="M224.7,23.7h-9.3v25.8h-3.8V23.7h-9.3v-3.1h22.4L224.7,23.7L224.7,23.7z"/>
	</g>
	<g>
		<path class="st0" d="M237.3,31.3c-0.6-0.1-1.2-0.1-1.8-0.1c-2.4,0-4.1,1-4.9,3.1v15.3h-3.7V28h3.6l0.1,2.5
			c1.2-1.9,2.9-2.9,5.1-2.9c0.7,0,1.3,0.1,1.6,0.3L237.3,31.3L237.3,31.3z"/>
	</g>
	<g>
		<path class="st0" d="M253.2,49.6c-0.2-0.4-0.4-1.2-0.5-2.3c-1.7,1.8-3.8,2.7-6.1,2.7c-2.1,0-3.9-0.6-5.2-1.8c-1.4-1.2-2-2.7-2-4.6
			c0-2.2,0.9-4,2.6-5.2c1.7-1.2,4.1-1.9,7.2-1.9h3.6v-1.7c0-1.3-0.4-2.3-1.2-3.1c-0.8-0.8-1.9-1.1-3.4-1.1c-1.3,0-2.4,0.3-3.3,1
			c-0.9,0.7-1.3,1.5-1.3,2.4h-3.7c0-1.1,0.4-2.1,1.1-3.1c0.8-1,1.8-1.8,3.1-2.4s2.7-0.9,4.3-0.9c2.5,0,4.4,0.6,5.8,1.9
			c1.4,1.2,2.1,2.9,2.2,5.1v9.9c0,2,0.3,3.5,0.8,4.7v0.3L253.2,49.6L253.2,49.6z M247.1,46.8c1.2,0,2.2-0.3,3.3-0.9
			c1-0.6,1.8-1.4,2.2-2.3v-4.4h-2.9c-4.5,0-6.8,1.3-6.8,4c0,1.2,0.4,2.1,1.2,2.7C244.9,46.4,245.9,46.8,247.1,46.8z"/>
	</g>
	<g>
		<path class="st0" d="M265.5,28l0.1,2.7c1.6-2.1,3.8-3.1,6.4-3.1c4.5,0,6.8,2.6,6.9,7.7v14.2h-3.7V35.3c0-1.6-0.4-2.7-1.1-3.4
			s-1.8-1.1-3.3-1.1c-1.2,0-2.2,0.3-3.1,1c-0.9,0.6-1.6,1.5-2.1,2.5v15.3H262V28H265.5z"/>
	</g>
	<g>
		<path class="st0" d="M297.1,43.9c0-1-0.4-1.8-1.1-2.3c-0.7-0.6-2.1-1-3.9-1.4c-1.9-0.4-3.3-0.9-4.4-1.4s-1.9-1.2-2.4-2
			s-0.8-1.7-0.8-2.7c0-1.8,0.7-3.3,2.2-4.5s3.4-1.8,5.7-1.8c2.4,0,4.4,0.6,5.9,1.9s2.3,2.9,2.3,4.8h-3.7c0-1-0.4-1.9-1.3-2.6
			s-1.9-1.1-3.2-1.1c-1.3,0-2.4,0.3-3.1,0.9c-0.8,0.6-1.1,1.3-1.1,2.3c0,0.9,0.4,1.6,1.1,2c0.7,0.5,2,0.9,3.8,1.3
			c1.8,0.4,3.3,0.9,4.5,1.5c1.1,0.6,2,1.3,2.5,2.1c0.6,0.8,0.8,1.8,0.8,2.9c0,1.9-0.8,3.5-2.3,4.6c-1.5,1.2-3.5,1.7-6,1.7
			c-1.7,0-3.2-0.3-4.6-0.9c-1.3-0.6-2.4-1.5-3.1-2.6s-1.1-2.3-1.1-3.6h3.7c0.1,1.2,0.6,2.2,1.5,2.9s2.1,1.1,3.7,1.1
			c1.4,0,2.5-0.3,3.4-0.8C296.6,45.6,297.1,44.8,297.1,43.9z"/>
	</g>
	<g>
		<path class="st0" d="M323.7,39c0,3.3-0.7,5.9-2.2,7.9s-3.5,3-6.1,3s-4.7-0.8-6.2-2.5v10.4h-3.7V28h3.4l0.2,2.4
			c1.5-1.9,3.6-2.8,6.2-2.8s4.6,1,6.1,2.9c1.5,1.9,2.3,4.7,2.3,8.1L323.7,39L323.7,39z M320,38.6c0-2.4-0.5-4.3-1.6-5.7
			c-1-1.4-2.5-2.1-4.3-2.1c-2.2,0-3.9,1-5,3V44c1.1,2,2.8,2.9,5.1,2.9c1.8,0,3.2-0.7,4.2-2.1C319.5,43.5,320,41.4,320,38.6z"/>
	</g>
	<g>
		<path class="st0" d="M327.4,38.6c0-2.1,0.4-4,1.2-5.7c0.8-1.7,2-3,3.5-3.9s3.2-1.4,5.1-1.4c2.9,0,5.3,1,7.1,3
			c1.8,2,2.7,4.7,2.7,8.1V39c0,2.1-0.4,4-1.2,5.6c-0.8,1.7-1.9,3-3.4,3.9s-3.2,1.4-5.1,1.4c-2.9,0-5.3-1-7.1-3
			c-1.8-2-2.7-4.7-2.7-8.1v-0.2H327.4z M331.1,39c0,2.4,0.6,4.3,1.7,5.7s2.6,2.2,4.4,2.2c1.9,0,3.4-0.7,4.5-2.2s1.7-3.5,1.7-6.2
			c0-2.4-0.6-4.3-1.7-5.7c-1.1-1.5-2.6-2.2-4.5-2.2c-1.8,0-3.3,0.7-4.4,2.2C331.7,34.3,331.1,36.4,331.1,39z"/>
	</g>
	<g>
		<path class="st0" d="M362,31.3c-0.6-0.1-1.2-0.1-1.8-0.1c-2.4,0-4.1,1-4.9,3.1v15.3h-3.7V28h3.6l0.1,2.5c1.2-1.9,2.9-2.9,5.1-2.9
			c0.7,0,1.3,0.1,1.6,0.3L362,31.3L362,31.3z"/>
	</g>
	<g>
		<path class="st0" d="M371.4,22.8V28h4v2.8h-4v13.4c0,0.9,0.2,1.5,0.5,1.9c0.4,0.4,1,0.6,1.8,0.6c0.4,0,1-0.1,1.8-0.2v3
			c-1,0.3-1.9,0.4-2.8,0.4c-1.6,0-2.9-0.5-3.7-1.5c-0.8-1-1.3-2.4-1.3-4.2V30.9h-3.9V28h3.9v-5.2H371.4z"/>
	</g>
</g>
</svg>
